<?xml version="1.0" encoding="UTF-8" standalone="no"?>
<!DOCTYPE svg PUBLIC "-//W3C//DTD SVG 1.1//EN"
 "http://www.w3.org/Graphics/SVG/1.1/DTD/svg11.dtd">
<!-- Generated by graphviz version 2.42.4 (0)
 -->
<!-- Title: IrisMiniTree Pages: 1 -->
<svg width="294pt" height="246pt"
 viewBox="0.00 0.00 293.50 246.00" xmlns="http://www.w3.org/2000/svg" xmlns:xlink="http://www.w3.org/1999/xlink">
<g id="graph0" class="graph" transform="scale(1 1) rotate(0) translate(4 242)">
<title>IrisMiniTree</title>
<polygon fill="white" stroke="transparent" points="-4,4 -4,-242 289.5,-242 289.5,4 -4,4"/>
<!-- root -->
<g id="node1" class="node">
<title>root</title>
<path fill="#f8f8f8" stroke="#333333" d="M137,-238C137,-238 12,-238 12,-238 6,-238 0,-232 0,-226 0,-226 0,-214 0,-214 0,-208 6,-202 12,-202 12,-202 137,-202 137,-202 143,-202 149,-208 149,-214 149,-214 149,-226 149,-226 149,-232 143,-238 137,-238"/>
<text text-anchor="middle" x="74.5" y="-216.3" font-family="Helvetica,sans-Serif" font-size="14.00">PetalLength &lt; 2.5?</text>
</g>
<!-- pw -->
<g id="node2" class="node">
<title>pw</title>
<path fill="#f8f8f8" stroke="#333333" d="M244.5,-137C244.5,-137 126.5,-137 126.5,-137 120.5,-137 114.5,-131 114.5,-125 114.5,-125 114.5,-113 114.5,-113 114.5,-107 120.5,-101 126.5,-101 126.5,-101 244.5,-101 244.5,-101 250.5,-101 256.5,-107 256.5,-113 256.5,-113 256.5,-125 256.5,-125 256.5,-131 250.5,-137 244.5,-137"/>
<text text-anchor="middle" x="185.5" y="-115.3" font-family="Helvetica,sans-Serif" font-size="14.00">PetalWidth &lt; 1.8?</text>
</g>
<!-- root&#45;&gt;pw -->
<g id="edge2" class="edge">
<title>root&#45;&gt;pw</title>
<path fill="none" stroke="black" d="M93.58,-201.98C111.53,-185.97 138.58,-161.85 158.69,-143.91"/>
<polygon fill="black" stroke="black" points="161.16,-146.4 166.3,-137.13 156.5,-141.17 161.16,-146.4"/>
<text text-anchor="middle" x="147" y="-165.8" font-family="Helvetica,sans-Serif" font-size="14.00">No</text>
</g>
<!-- setosa -->
<g id="node3" class="node">
<title>setosa</title>
<path fill="#dff5df" stroke="#333333" d="M59,-137C59,-137 20,-137 20,-137 14,-137 8,-131 8,-125 8,-125 8,-113 8,-113 8,-107 14,-101 20,-101 20,-101 59,-101 59,-101 65,-101 71,-107 71,-113 71,-113 71,-125 71,-125 71,-131 65,-137 59,-137"/>
<text text-anchor="middle" x="39.5" y="-115.3" font-family="Helvetica,sans-Serif" font-size="14.00">Setosa</text>
</g>
<!-- root&#45;&gt;setosa -->
<g id="edge1" class="edge">
<title>root&#45;&gt;setosa</title>
<path fill="none" stroke="black" d="M68.4,-201.76C63.03,-186.57 55.13,-164.2 48.94,-146.7"/>
<polygon fill="black" stroke="black" points="52.16,-145.31 45.53,-137.05 45.56,-147.64 52.16,-145.31"/>
<text text-anchor="middle" x="71" y="-165.8" font-family="Helvetica,sans-Serif" font-size="14.00">Yes</text>
</g>
<!-- versicolor -->
<g id="node4" class="node">
<title>versicolor</title>
<path fill="#ffe2c9" stroke="#333333" d="M154.5,-36C154.5,-36 94.5,-36 94.5,-36 88.5,-36 82.5,-30 82.5,-24 82.5,-24 82.5,-12 82.5,-12 82.5,-6 88.5,0 94.5,0 94.5,0 154.5,0 154.5,0 160.5,0 166.5,-6 166.5,-12 166.5,-12 166.5,-24 166.5,-24 166.5,-30 160.5,-36 154.5,-36"/>
<text text-anchor="middle" x="124.5" y="-14.3" font-family="Helvetica,sans-Serif" font-size="14.00">Versicolor</text>
</g>
<!-- pw&#45;&gt;versicolor -->
<g id="edge3" class="edge">
<title>pw&#45;&gt;versicolor</title>
<path fill="none" stroke="black" d="M174.87,-100.76C165.34,-85.28 151.22,-62.36 140.35,-44.72"/>
<polygon fill="black" stroke="black" points="143.23,-42.72 135,-36.05 137.27,-46.4 143.23,-42.72"/>
<text text-anchor="middle" x="171" y="-64.8" font-family="Helvetica,sans-Serif" font-size="14.00">Yes</text>
</g>
<!-- virginica -->
<g id="node5" class="node">
<title>virginica</title>
<path fill="#e9dcff" stroke="#333333" d="M273.5,-36C273.5,-36 221.5,-36 221.5,-36 215.5,-36 209.5,-30 209.5,-24 209.5,-24 209.5,-12 209.5,-12 209.5,-6 215.5,0 221.5,0 221.5,0 273.5,0 273.5,0 279.5,0 285.5,-6 285.5,-12 285.5,-12 285.5,-24 285.5,-24 285.5,-30 279.5,-36 273.5,-36"/>
<text text-anchor="middle" x="247.5" y="-14.3" font-family="Helvetica,sans-Serif" font-size="14.00">Virginica</text>
</g>
<!-- pw&#45;&gt;virginica -->
<g id="edge4" class="edge">
<title>pw&#45;&gt;virginica</title>
<path fill="none" stroke="black" d="M196.3,-100.76C205.99,-85.28 220.35,-62.36 231.39,-44.72"/>
<polygon fill="black" stroke="black" points="234.48,-46.38 236.82,-36.05 228.55,-42.66 234.48,-46.38"/>
<text text-anchor="middle" x="230" y="-64.8" font-family="Helvetica,sans-Serif" font-size="14.00">No</text>
</g>
</g>
</svg>
